<svg width="327" height="123" viewBox="0 0 327 123" fill="none" xmlns="http://www.w3.org/2000/svg">
<g filter="url(#filter0_d_282_17273)">
<mask id="path-1-inside-1_282_17273" fill="white">
<path d="M121.092 38H327V123H0V38H67.3047L50.3086 0L121.092 38Z"/>
</mask>
<path d="M121.092 38H327V123H0V38H67.3047L50.3086 0L121.092 38Z" fill="#F9E3CF"/>
<path d="M121.092 38L120.382 39.3216L120.715 39.5H121.092V38ZM327 38H328.5V36.5H327V38ZM327 123V124.5H328.5V123H327ZM0 123H-1.5V124.5H0V123ZM0 38V36.5H-1.5V38H0ZM67.3047 38V39.5H69.6188L68.674 37.3876L67.3047 38ZM50.3086 0L51.0181 -1.32159L47.1441 -3.40136L48.9393 0.612432L50.3086 0ZM121.092 38V39.5H327V38V36.5H121.092V38ZM327 38H325.5V123H327H328.5V38H327ZM327 123V121.5H0V123V124.5H327V123ZM0 123H1.5V38H0H-1.5V123H0ZM0 38V39.5H67.3047V38V36.5H0V38ZM67.3047 38L68.674 37.3876L51.6779 -0.612432L50.3086 0L48.9393 0.612432L65.9354 38.6124L67.3047 38ZM50.3086 0L49.5991 1.32159L120.382 39.3216L121.092 38L121.801 36.6784L51.0181 -1.32159L50.3086 0Z" fill="#F5800C" mask="url(#path-1-inside-1_282_17273)"/>
</g>
<defs>
<filter id="filter0_d_282_17273" x="-12" y="-8" width="351" height="147" filterUnits="userSpaceOnUse" color-interpolation-filters="sRGB">
<feFlood flood-opacity="0" result="BackgroundImageFix"/>
<feColorMatrix in="SourceAlpha" type="matrix" values="0 0 0 0 0 0 0 0 0 0 0 0 0 0 0 0 0 0 127 0" result="hardAlpha"/>
<feOffset dy="4"/>
<feGaussianBlur stdDeviation="6"/>
<feComposite in2="hardAlpha" operator="out"/>
<feColorMatrix type="matrix" values="0 0 0 0 0 0 0 0 0 0 0 0 0 0 0 0 0 0 0.12 0"/>
<feBlend mode="normal" in2="BackgroundImageFix" result="effect1_dropShadow_282_17273"/>
<feBlend mode="normal" in="SourceGraphic" in2="effect1_dropShadow_282_17273" result="shape"/>
</filter>
</defs>
</svg>
